<svg width="1600" height="1200" viewBox="0 0 1600 1200" fill="none" xmlns="http://www.w3.org/2000/svg">
  <g opacity="0.6" stroke="#B99779" stroke-width="1.2">
    <path d="M-80 600C60 520 220 560 360 470C500 380 580 120 760 140C940 160 920 420 1100 440C1280 460 1340 280 1520 320C1700 360 1680 620 1860 620"/>
    <path d="M-100 800C40 720 200 760 340 670C480 580 560 320 740 340C920 360 900 620 1080 640C1260 660 1320 480 1500 520C1680 560 1660 820 1840 820"/>
    <path d="M-120 1000C20 920 180 960 320 870C460 780 540 520 720 540C900 560 880 820 1060 840C1240 860 1300 680 1480 720C1660 760 1640 1020 1820 1020"/>
    <path d="M-60 400C80 320 240 360 380 270C520 180 600 -80 780 -60C960 -40 940 220 1120 240C1300 260 1360 80 1540 120C1720 160 1700 420 1880 420"/>
  </g>
</svg>
